<?xml version="1.0" encoding="UTF-8" standalone="no"?>
<!-- Created with Inkscape (http://www.inkscape.org/) -->

<svg
   xmlns:dc="http://purl.org/dc/elements/1.1/"
   xmlns:cc="http://creativecommons.org/ns#"
   xmlns:rdf="http://www.w3.org/1999/02/22-rdf-syntax-ns#"
   xmlns:svg="http://www.w3.org/2000/svg"
   xmlns="http://www.w3.org/2000/svg"
   xmlns:sodipodi="http://sodipodi.sourceforge.net/DTD/sodipodi-0.dtd"
   xmlns:inkscape="http://www.inkscape.org/namespaces/inkscape"
   width="256"
   height="256"
   id="svg8302"
   sodipodi:version="0.32"
   inkscape:version="0.48.4 r9939"
   version="1.0"
   sodipodi:docname="Pictograms-nps-misc-beach_access-2.svg"
   inkscape:output_extension="org.inkscape.output.svg.inkscape">
  <defs
     id="defs8304">
    <inkscape:perspective
       sodipodi:type="inkscape:persp3d"
       inkscape:vp_x="0 : 526.18109 : 1"
       inkscape:vp_y="0 : 1000 : 0"
       inkscape:vp_z="744.09448 : 526.18109 : 1"
       inkscape:persp3d-origin="372.04724 : 350.78739 : 1"
       id="perspective8310" />
  </defs>
  <sodipodi:namedview
     id="base"
     pagecolor="#ffffff"
     bordercolor="#666666"
     borderopacity="1.0"
     gridtolerance="10000"
     guidetolerance="10"
     objecttolerance="10"
     inkscape:pageopacity="0.0"
     inkscape:pageshadow="2"
     inkscape:zoom="0.5"
     inkscape:cx="128"
     inkscape:cy="128"
     inkscape:document-units="px"
     inkscape:current-layer="layer1"
     showgrid="false"
     inkscape:window-width="1024"
     inkscape:window-height="1258"
     inkscape:window-x="1016"
     inkscape:window-y="-8"
     inkscape:window-maximized="1" />
  <metadata
     id="metadata8307">
    <rdf:RDF>
      <cc:Work
         rdf:about="">
        <dc:format>image/svg+xml</dc:format>
        <dc:type
           rdf:resource="http://purl.org/dc/dcmitype/StillImage" />
        <dc:title></dc:title>
      </cc:Work>
    </rdf:RDF>
  </metadata>
  <g
     inkscape:label="Layer 1"
     inkscape:groupmode="layer"
     id="layer1">
    <rect
       style="fill:#1e90ff;fill-opacity:1"
       id="rect3763"
       width="256.44614"
       height="256.10739"
       x="-0.22306824"
       y="-0.053695679" />
    <path
       style="fill:#00008b;fill-opacity:1"
       d="m -5.7499995e-8,231.86514 0,-10.37219 L 3.7499999,220.89266 c 7.9954591,-1.2799 19.3162791,-9.11444 26.0678491,-18.04019 l 2.18215,-2.88486 2.18215,2.88486 c 4.18564,5.53353 12.35785,12.49619 17.81785,15.18069 11.29222,5.55201 23.59657,2.8824 34.56785,-7.5 2.78732,-2.6377 6.04982,-6.09402 7.25,-7.68069 l 2.18215,-2.88486 2.182149,2.88486 C 102.36779,208.386 110.54,215.34866 116,218.03316 c 7.67235,3.77224 16.32765,3.77224 24,0 5.46,-2.6845 13.63221,-9.64716 17.81785,-15.18069 L 160,199.96761 l 2.18215,2.88486 C 166.36779,208.386 174.54,215.34866 180,218.03316 c 7.67235,3.77224 16.32765,3.77224 24,0 5.46,-2.6845 13.63221,-9.64716 17.81785,-15.18069 L 224,199.96761 l 2.18215,2.88486 c 6.75157,8.92575 18.07239,16.76029 26.06785,18.04019 l 3.75,0.60029 0,10.37219 0,10.37219 -2.75,-7.9e-4 c -5.38612,-0.002 -15.25168,-5.73567 -22.41541,-13.02843 L 224,222.25042 l -6.83459,6.95769 c -17.03178,17.33855 -33.29904,17.33855 -50.33082,0 L 160,222.25042 l -6.83459,6.95769 c -8.5057,8.65891 -16.94476,13.02764 -25.16541,13.02764 -8.22065,0 -16.65971,-4.36873 -25.16541,-13.02764 l -6.834591,-6.95769 -6.83459,6.95769 c -17.03178,17.33855 -33.29904,17.33855 -50.33082,0 l -6.83459,-6.95769 -6.83459,6.95769 C 18.001679,236.50087 8.1361196,242.235 2.7499999,242.23654 l -2.749999957500005,7.9e-4 0,-10.37219 z m 0,-74.52114 0,-10.84333 L 3.9829999,145.96644 c 6.6390891,-0.89049 13.1451191,-4.77139 20.7669991,-12.38766 l 7.25,-7.24468 7.25,7.24468 c 9.53744,9.53042 14.88726,12.15855 24.75,12.15855 9.86274,0 15.21256,-2.62813 24.75,-12.15855 l 7.25,-7.24468 7.250001,7.24468 c 9.53744,9.53042 14.88726,12.15855 24.75,12.15855 9.86274,0 15.21256,-2.62813 24.75,-12.15855 l 7.25,-7.24468 7.25,7.24468 c 9.53744,9.53042 14.88726,12.15855 24.75,12.15855 9.86274,0 15.21256,-2.62813 24.75,-12.15855 l 7.25,-7.24468 7.25,7.24468 c 7.62188,7.61627 14.12791,11.49717 20.767,12.38766 l 3.983,0.53423 0,10.84333 0,10.84333 -3.25,-0.56379 c -7.07714,-1.22769 -15.39631,-6.26808 -22.13421,-13.41061 L 224,147.19984 l -6.61579,7.01309 c -16.85319,17.86526 -33.91523,17.86526 -50.76842,0 L 160,147.19984 l -6.61579,7.01309 c -16.85319,17.86526 -33.91523,17.86526 -50.76842,0 l -6.615791,-7.01309 -6.61579,7.01309 c -8.48917,8.99896 -16.77231,13.35773 -25.38421,13.35773 -8.6119,0 -16.89504,-4.35877 -25.38421,-13.35773 l -6.61579,-7.01309 -6.61579,7.01309 c -6.7379,7.14253 -15.05707,12.18292 -22.1342091,13.41061 L -5.749997e-8,168.18733 l 0,-10.84333 z"
       id="path3877"
       inkscape:connector-curvature="0" />
    <g
       id="g3925">
      <g
         style="stroke:#00008b;stroke-width:6;stroke-linejoin:round;stroke-miterlimit:4;stroke-opacity:1;stroke-dasharray:none"
         transform="translate(82.230966,26.467855)"
         id="g3870">
        <path
           inkscape:connector-curvature="0"
           style="fill:#ffffaa;fill-opacity:1;fill-rule:nonzero;stroke:#00008b;stroke-width:6;stroke-linejoin:round;stroke-miterlimit:4;stroke-opacity:1;stroke-dasharray:none"
           d="M 90.496063,55.204727 C 74.692914,33.129923 24.980315,-2.0905513 14.031496,0.10629922 2.3385827,2.444882 -0.88582677,68.598429 0.17716535,82.807091 7.1220473,69.803153 17.716535,60.023625 29.976378,53.893703 l 2.090551,-0.885826 1.807087,-0.779528 2.515748,-1.098425 c 16.866142,-6.236221 36.212598,-5.704725 54.106299,4.074803"
           id="path3872" />
      </g>
      <g
         style="stroke:#00008b;stroke-opacity:1;stroke-width:3;stroke-miterlimit:4;stroke-dasharray:none;stroke-linejoin:round"
         transform="translate(82.19436,26.377569)"
         id="g3894">
        <path
           sodipodi:nodetypes="cccc"
           inkscape:connector-curvature="0"
           style="fill:#00008b;fill-opacity:1;fill-rule:nonzero;stroke:#00008b;stroke-opacity:1;stroke-width:3;stroke-miterlimit:4;stroke-dasharray:none;stroke-linejoin:round"
           d="M 29.976378,53.893702 80.397638,191.16142 87.307087,189.46064 36.389764,51.129923"
           id="path3896" />
      </g>
      <g
         style="fill:#ffffaa;fill-opacity:1;stroke:#00008b;stroke-width:0.23163281;stroke-linejoin:round;stroke-miterlimit:4;stroke-opacity:1;stroke-dasharray:none"
         transform="matrix(25.903066,0,0,-25.903066,10.310566,134.665)"
         id="g3174">
        <path
           id="path3176"
           style="fill:#ffffaa;fill-opacity:1;fill-rule:nonzero;stroke:#00008b;stroke-width:0.23163281;stroke-linejoin:round;stroke-miterlimit:4;stroke-opacity:1;stroke-dasharray:none"
           d="M 0,0 C 0.563,0.663 1.588,1.128 2.467,0.981 2.565,2.188 2.428,3.318 3.03,4.431 1.162,4.308 0.295,1.455 0,0"
           inkscape:connector-curvature="0" />
      </g>
      <g
         style="fill:#ffffaa;fill-opacity:1;stroke:#00008b;stroke-width:0.23163281;stroke-linejoin:round;stroke-miterlimit:4;stroke-opacity:1;stroke-dasharray:none"
         transform="matrix(25.903066,0,0,-25.903066,181.81767,79.799408)"
         id="g3178">
        <path
           id="path3180"
           style="fill:#ffffaa;fill-opacity:1;fill-rule:nonzero;stroke:#00008b;stroke-width:0.23163281;stroke-linejoin:round;stroke-miterlimit:4;stroke-opacity:1;stroke-dasharray:none"
           d="M 0,0 C 0.393,0.467 1.32,0.705 1.807,0.268 0.537,2.041 -1.033,3.18 -3.265,2.422 -1.52,1.891 -0.297,0.263 0,0"
           inkscape:connector-curvature="0" />
      </g>
    </g>
    <g
       transform="translate(-312.92427,-285.04401)"
       id="g3825">
      <path
         transform="translate(-0.52364006,4.7127605)"
         d="m 442.47584,459.60162 c 0,33.83622 -27.66412,61.26589 -61.78953,61.26589 -34.12541,0 -61.78953,-27.42967 -61.78953,-61.26589 0,-33.83621 27.66412,-61.26588 61.78953,-61.26588 34.12541,0 61.78953,27.42967 61.78953,61.26588 z"
         sodipodi:ry="61.265888"
         sodipodi:rx="61.789528"
         sodipodi:cy="459.60162"
         sodipodi:cx="380.68631"
         id="path3823"
         style="fill:#ffffaa;fill-opacity:1"
         sodipodi:type="arc" />
      <path
         inkscape:connector-curvature="0"
         id="path2996"
         d="m 371.25001,527.22541 c -13.251,-1.689 -26.79734,-8.42003 -36.52735,-18.15004 -24.90143,-24.90144 -24.90143,-65.65327 0,-90.5547 24.90144,-24.90144 65.65327,-24.90144 90.55471,0 24.90143,24.90143 24.90143,65.65326 0,90.5547 -14.05465,14.05465 -33.887,20.71716 -54.02736,18.15004 z m 19.31867,-10.44138 c 5.9698,-1.21657 11.35996,-3.27566 16.43133,-6.27691 6.06279,-3.58797 5.66603,-2.81254 4.22309,-8.2536 -3.66858,-13.8336 -9.6217,-28.57087 -14.3995,-35.64671 -1.27797,-1.89266 -2.32359,-3.53844 -2.32359,-3.65728 0,-0.11884 0.68487,-0.79234 1.52193,-1.49668 3.16394,-2.66228 4.43942,-7.84544 2.73955,-11.13264 l -0.73853,-1.42815 3.11353,0.7058 c 11.66475,2.64427 21.85731,8.04031 28.98853,15.34683 l 3.875,3.97026 0,-5.35492 c 0,-20.16924 -11.34196,-38.43519 -29.85875,-48.08679 -1.76766,-0.92137 -3.50072,-1.67521 -3.85125,-1.67521 -0.46255,0 -0.7231,1.61123 -0.95003,5.875 -0.35796,6.72528 -1.31676,13.04457 -3.14699,20.74135 l -1.27608,5.36635 -1.43363,-0.74135 c -1.89515,-0.98003 -4.96875,-0.93914 -7.56748,0.10067 -1.31156,0.52478 -2.16883,0.64889 -2.27532,0.3294 -0.51252,-1.53757 -5.5645,-9.04577 -8.86253,-13.17142 -4.21804,-5.27651 -14.61585,-15.97668 -16.51063,-16.99074 -1.10784,-0.59289 -1.55029,-0.45635 -4.86796,1.50226 -17.25769,10.18824 -27.39936,27.52948 -27.39936,46.85018 0,4.7607 0.5018,9.48513 1.29796,12.2204 0.18836,0.64714 0.7657,0.27237 2.59712,-1.68583 3.31872,-3.54847 9.12433,-8.29029 14.10492,-11.5204 10.14343,-6.57841 20.76813,-10.66109 32.65369,-12.5476 3.84913,-0.61095 4.36845,-0.60716 4.12392,0.0301 -1.82508,4.75608 0.38829,10.00654 5.43782,12.89934 0.82988,0.47542 0.78104,0.82507 -0.76822,5.5 -2.91516,8.79652 -11.30672,24.4012 -20.83405,38.74228 l -4.48428,6.75 2.1936,0.8698 c 7.22994,2.86682 19.39282,3.67041 28.24619,1.86621 z"
         style="fill:#00008b;fill-opacity:1" />
    </g>
  </g>
</svg>
